<svg xmlns="http://www.w3.org/2000/svg" viewBox="0 0 411.6 397.07">
  <path fill="#fff" d="M391.7 128.93c-1.43-2.28-.76-3.95.39-6.18 4.92-9.51 10.7-18.8 13.96-28.89 10.92-32.73-2.59-72.34-34.27-88.11-17.58-9.61-41.78-7.08-56.05 6.88-5.51 5.39-8.76 13.09-13.32 20.16-62.99-35.26-127.63-34-192.74-1.62-1.72-3.86-2.84-7.89-5.09-11.15C97.28 9.44 87.32 3.05 74.36.95 39.45-5.66 10.1 23.5 4.98 56.51c-4.38 23.07-1.22 44.48 11.72 64 3.48 5.24 4.09 8.52.97 14.48C.48 168.93-4.03 208.94 3.54 246.12c13.97 70.25 65.62 120.7 133.53 140.44 22.3 6.74 45.05 9.92 68.23 10.48 5.26.13 10.56-.35 15.8-.98 11.53-1.39 23.25-2.11 34.47-4.84 14.17-3.45 28.16-8 41.79-13.21 64.24-24.97 110.44-88.73 113.82-157.59 2.09-31.28-3.19-64.26-19.46-91.5Z"/>
  <path d="M113.96 266.31c-28.34-18.27-37.36-63.08-11.79-87.43 24.3-24.2 64.58-3.12 63.32 30.02-.45 22.81-.13 45.64-.13 69.27-18.4-.29-36.1-.92-51.39-11.86Zm130.31 30.98c-8.91 10.64-20.18 18.28-33.75 21.57-9.43 2.28-17.74-2.42-25.46-6.99-5.59-3.31-10.58-7.75-15.43-12.13-3.03-2.73-5.55-6.09-3.47-10.87 2.01-4.62 5.35-5.97 10.21-5.83 9.98.29 19.98.09 29.97.09 10.49 0 20.98.14 31.47-.07 3.83-.08 6.94 1.06 7.55 4.74.51 3.09.65 7.42-1.09 9.5Zm37.01-21.8c-10.26 1.92-20.82 2.22-31.92 3.31 0-28.03-.7-54.67.34-81.25.43-11.02 8.28-19.07 18.08-24.54 15.4-8.59 32.29-4.83 44.18 6.15 34.1 29.86 10.84 88.32-30.68 96.32Z"/>
  <path fill="#fff" d="M123.26 226.67c-5.08-.31-8.91-4.77-8.91-9.85v-14.91c.51-12.6 18.49-12.61 19 0v15.28c0 5.44-4.57 9.81-10.09 9.48Zm167 .08c-5.08-.31-8.91-4.77-8.91-9.85v-14.91c.51-12.6 18.49-12.61 19 0v15.28c0 5.44-4.57 9.81-10.09 9.48Z"/>
</svg>
